<svg width="892" height="715" viewBox="0 0 892 715" fill="none" xmlns="http://www.w3.org/2000/svg">
<path d="M211.441 704.174L10.2158 463.708C4.67459 457.086 5.85381 447.165 12.7928 442.027L152.731 338.401C156.09 335.914 158.259 332.138 158.715 327.983L161.703 300.761C162.206 296.177 164.789 292.08 168.707 289.65L281 220L505.5 110L792.471 5.8224C798.716 3.55533 805.708 5.66632 809.655 11.0104L883.553 111.063C888.289 117.476 887.182 126.474 881.031 131.547L699.229 281.487C698.412 282.16 697.526 282.746 696.586 283.233L479.19 395.883C478.398 396.294 477.645 396.774 476.938 397.318L409.131 449.542C402.667 454.52 401.367 463.752 406.205 470.321L524.349 630.753C529.165 637.293 527.901 646.478 521.497 651.474L474.36 688.247C467.815 693.353 458.368 692.173 453.281 685.614L391.979 606.576C386.986 600.139 377.768 598.863 371.215 603.703L231.855 706.615C225.475 711.326 216.531 710.257 211.441 704.174Z" stroke="#B0BBAA" stroke-width="8" stroke-linecap="round" stroke-linejoin="round"/>
<path d="M122.516 421.775L80.6244 452.622C76.9961 455.294 76.289 460.433 79.061 463.986L136.714 537.866C139.378 541.281 144.277 541.955 147.765 539.386L347.422 392.344C351.033 389.685 351.753 384.579 349.019 381.025L338.854 367.81C336.169 364.32 336.81 359.317 340.287 356.615L397.301 312.317C400.743 309.642 405.694 310.216 408.433 313.607L461.577 379.405C464.312 382.791 469.254 383.369 472.696 380.705L586.341 292.766C589.769 290.113 590.461 285.213 587.901 281.715L537.083 212.263C534.53 208.774 535.211 203.887 538.621 201.229L560.778 183.959C564.025 181.429 568.661 181.775 571.496 184.759L571.998 185.287C574.384 187.799 578.117 188.489 581.244 186.997L689.497 135.32C693.777 133.277 698.885 135.385 700.479 139.853L719.371 192.833C720.093 194.858 721.599 196.512 723.668 197.099C728.577 198.491 738.792 200.236 751.5 196C764.528 191.657 771.793 183.386 774.813 179.148C775.986 177.501 776.199 175.417 775.658 173.469L765.432 136.654C764.565 133.535 765.664 130.2 768.216 128.208L813.11 93.1478C815.227 91.4945 816.373 88.8892 816.161 86.2116L811.827 31.4546C811.411 26.192 806.101 22.7685 801.136 24.561L556.393 112.914C553.679 113.894 551.703 116.26 551.222 119.105L546.552 146.734C546.199 148.825 546.69 150.971 547.919 152.7L555.045 162.73C557.533 166.232 556.811 171.074 553.41 173.698L530.805 191.136C527.318 193.826 522.313 193.192 519.607 189.717L485.282 145.641C482.62 142.223 477.72 141.545 474.23 144.112L356.462 230.747C352.896 233.37 352.138 238.39 354.771 241.949L390.853 290.719C393.437 294.211 392.761 299.128 389.33 301.794L332.286 346.116C328.809 348.817 323.803 348.202 321.085 344.739L288.664 303.441C286.046 300.106 281.281 299.393 277.801 301.815L239.646 328.374C235.989 330.92 235.117 335.963 237.707 339.59L265.923 379.092C268.462 382.647 267.68 387.582 264.165 390.178L169.986 459.711C166.412 462.35 161.373 461.571 158.762 457.976L133.732 423.515C131.124 419.924 126.09 419.143 122.516 421.775Z" fill="#B0BBAA"/>
</svg>
