<svg width="1000" height="233" viewBox="0 0 1000 233" fill="none" xmlns="http://www.w3.org/2000/svg">
<path d="M236 80C100.5 106.737 -13.5 202.5 -13.5 202.5L-9 257.5H487.5C1000.92 248.807 997.5 250.5 1010 235.5C1022.5 220.5 1018 167.5 1018 38.5C888.456 141.794 727.396 98.3971 660 91.5C435.771 68.553 371.5 53.2626 236 80Z" fill="#B0BBAA"/>
<ellipse cx="115.5" cy="66.271" rx="30.5" ry="40.0065" fill="#84A48C"/>
<path d="M113.256 47.2401C113.256 47.2401 112.328 66.2588 115.5 91.2255C118.673 116.192 124.874 134.023 124.874 134.023" stroke="#777172" stroke-width="3" stroke-linecap="round"/>
<path d="M104.805 58.745L112.727 62.3099" stroke="#777172" stroke-width="3" stroke-linecap="round"/>
<path d="M105.993 83.3033L114.707 88.0566" stroke="#777172" stroke-width="3" stroke-linecap="round"/>
<path d="M122.63 64.2904L114.312 69.4398" stroke="#777172" stroke-width="3" stroke-linecap="round"/>
<path d="M125.402 91.6216L116.688 96.3748" stroke="#777172" stroke-width="3" stroke-linecap="round"/>
<ellipse cx="728.525" cy="64.7098" rx="22.4215" ry="29.5019" transform="rotate(4.99813 728.525 64.7098)" fill="#84A48C"/>
<path d="M730.821 49.0064C730.821 49.0064 727.933 63.7199 728.502 82.7924C729.07 101.865 732.225 115.692 732.225 115.692" stroke="#777172" stroke-width="3" stroke-linecap="round"/>
<path d="M722.48 57.0736L728.476 60.7568" stroke="#777172" stroke-width="3" stroke-linecap="round"/>
<path d="M719.591 76.564L727.938 80.4528" stroke="#777172" stroke-width="3" stroke-linecap="round"/>
<path d="M736.534 63.4358L729.138 66.7376" stroke="#777172" stroke-width="3" stroke-linecap="round"/>
<path d="M736.71 83.9842L728.99 86.4679" stroke="#777172" stroke-width="3" stroke-linecap="round"/>
<g filter="url(#filter0_d_137_258)">
<ellipse cx="686.269" cy="42.0454" rx="30.7355" ry="40.3154" transform="rotate(2.19547 686.269 42.0454)" fill="#84A48C"/>
</g>
<path d="M684.744 22.7951C684.744 22.7951 683.075 41.9108 685.306 67.1743C687.537 92.4378 693.093 110.632 693.093 110.632" stroke="#777172" stroke-width="3" stroke-linecap="round"/>
<path d="M675.79 34.0541L683.63 37.9497" stroke="#777172" stroke-width="3" stroke-linecap="round"/>
<path d="M676.039 58.8298L684.631 63.9527" stroke="#777172" stroke-width="3" stroke-linecap="round"/>
<path d="M693.526 40.3262L684.951 45.1904" stroke="#777172" stroke-width="3" stroke-linecap="round"/>
<path d="M695.262 67.9554L686.304 72.4055" stroke="#777172" stroke-width="3" stroke-linecap="round"/>
<g filter="url(#filter1_d_137_258)">
<ellipse cx="77.6686" cy="99.3838" rx="22.3316" ry="29.3838" fill="#84A48C"/>
</g>
<path d="M78.5843 83.6035C78.5843 83.6035 76.9959 98.4529 79.215 117.327C81.434 136.202 85.7637 149.648 85.7637 149.648" stroke="#777172" stroke-width="3" stroke-linecap="round"/>
<path d="M71.0088 92.3317L77.2773 95.4659" stroke="#777172" stroke-width="3" stroke-linecap="round"/>
<path d="M69.833 111.921L78.4522 115.055" stroke="#777172" stroke-width="3" stroke-linecap="round"/>
<path d="M85.5042 97.4249L78.4521 101.343" stroke="#777172" stroke-width="3" stroke-linecap="round"/>
<path d="M87.4634 117.798L80.0195 120.932" stroke="#777172" stroke-width="3" stroke-linecap="round"/>
<g filter="url(#filter2_d_137_258)">
<ellipse cx="943.949" cy="44.0148" rx="22.0513" ry="29.0148" fill="#84A48C"/>
</g>
<path d="M944.853 28.4326C944.853 28.4326 943.284 43.0956 945.475 61.7331C947.667 80.3707 951.942 93.6479 951.942 93.6479" stroke="#777172" stroke-width="3" stroke-linecap="round"/>
<path d="M937.371 37.0513L943.561 40.1462" stroke="#777172" stroke-width="3" stroke-linecap="round"/>
<path d="M936.211 56.3945L944.722 59.4894" stroke="#777172" stroke-width="3" stroke-linecap="round"/>
<path d="M951.685 42.0806L944.722 45.9492" stroke="#777172" stroke-width="3" stroke-linecap="round"/>
<path d="M953.62 62.1975L946.27 65.2924" stroke="#777172" stroke-width="3" stroke-linecap="round"/>
<g filter="url(#filter3_d_137_258)">
<ellipse cx="155.532" cy="78.1646" rx="17.4684" ry="23.1646" fill="#84A48C"/>
</g>
<path d="M154.772 68.6709C154.772 68.6709 154.772 83.1013 156.291 94.1139C157.81 105.127 161.228 115 161.228 115" stroke="#777172" stroke-width="3" stroke-linecap="round"/>
<path d="M150.216 74.7468L154.393 76.6456" stroke="#777172" stroke-width="3" stroke-linecap="round"/>
<path d="M160.089 78.1646L155.912 80.0633" stroke="#777172" stroke-width="3" stroke-linecap="round"/>
<path d="M149.836 88.038L155.532 90.3164" stroke="#777172" stroke-width="3" stroke-linecap="round"/>
<path d="M161.608 92.2152L157.051 94.4937" stroke="#777172" stroke-width="3" stroke-linecap="round"/>
<ellipse cx="300.313" cy="45.8706" rx="15.4992" ry="21.2738" transform="rotate(6.40733 300.313 45.8706)" fill="#84A48C"/>
<path d="M300.582 32.827C300.582 32.827 298.916 47.3886 299.177 58.6769C299.437 69.9651 301.746 80.323 301.746 80.323" stroke="#777172" stroke-width="3" stroke-linecap="round"/>
<path d="M295.282 38.432L299.278 40.8304" stroke="#777172" stroke-width="3" stroke-linecap="round"/>
<path d="M304.85 43.021L300.415 44.4546" stroke="#777172" stroke-width="3" stroke-linecap="round"/>
<path d="M293.364 51.8L298.849 54.7571" stroke="#777172" stroke-width="3" stroke-linecap="round"/>
<path d="M304.761 57.3749L299.9 59.1478" stroke="#777172" stroke-width="3" stroke-linecap="round"/>
<ellipse cx="890.383" cy="70.0666" rx="16.3098" ry="22.3863" transform="rotate(6.40733 890.383 70.0666)" fill="#84A48C"/>
<path d="M890.666 56.3408C890.666 56.3408 888.912 71.6639 889.187 83.5425C889.462 95.421 891.891 106.321 891.891 106.321" stroke="#777172" stroke-width="3" stroke-linecap="round"/>
<path d="M885.089 62.2389L889.294 64.7627" stroke="#777172" stroke-width="3" stroke-linecap="round"/>
<path d="M895.157 67.0679L890.491 68.5765" stroke="#777172" stroke-width="3" stroke-linecap="round"/>
<path d="M883.07 76.3062L888.842 79.4178" stroke="#777172" stroke-width="3" stroke-linecap="round"/>
<path d="M895.063 82.1724L889.948 84.0381" stroke="#777172" stroke-width="3" stroke-linecap="round"/>
<defs>
<filter id="filter0_d_137_258" x="654.517" y="1.74207" width="69.5049" height="88.6068" filterUnits="userSpaceOnUse" color-interpolation-filters="sRGB">
<feFlood flood-opacity="0" result="BackgroundImageFix"/>
<feColorMatrix in="SourceAlpha" type="matrix" values="0 0 0 0 0 0 0 0 0 0 0 0 0 0 0 0 0 0 127 0" result="hardAlpha"/>
<feOffset dx="3" dy="4"/>
<feGaussianBlur stdDeviation="2"/>
<feComposite in2="hardAlpha" operator="out"/>
<feColorMatrix type="matrix" values="0 0 0 0 0 0 0 0 0 0 0 0 0 0 0 0 0 0 0.25 0"/>
<feBlend mode="normal" in2="BackgroundImageFix" result="effect1_dropShadow_137_258"/>
<feBlend mode="normal" in="SourceGraphic" in2="effect1_dropShadow_137_258" result="shape"/>
</filter>
<filter id="filter1_d_137_258" x="54.3369" y="66" width="52.6631" height="66.7675" filterUnits="userSpaceOnUse" color-interpolation-filters="sRGB">
<feFlood flood-opacity="0" result="BackgroundImageFix"/>
<feColorMatrix in="SourceAlpha" type="matrix" values="0 0 0 0 0 0 0 0 0 0 0 0 0 0 0 0 0 0 127 0" result="hardAlpha"/>
<feOffset dx="3"/>
<feGaussianBlur stdDeviation="2"/>
<feComposite in2="hardAlpha" operator="out"/>
<feColorMatrix type="matrix" values="0 0 0 0 0 0 0 0 0 0 0 0 0 0 0 0 0 0 0.25 0"/>
<feBlend mode="normal" in2="BackgroundImageFix" result="effect1_dropShadow_137_258"/>
<feBlend mode="normal" in="SourceGraphic" in2="effect1_dropShadow_137_258" result="shape"/>
</filter>
<filter id="filter2_d_137_258" x="920.897" y="11" width="52.1025" height="66.0297" filterUnits="userSpaceOnUse" color-interpolation-filters="sRGB">
<feFlood flood-opacity="0" result="BackgroundImageFix"/>
<feColorMatrix in="SourceAlpha" type="matrix" values="0 0 0 0 0 0 0 0 0 0 0 0 0 0 0 0 0 0 127 0" result="hardAlpha"/>
<feOffset dx="3"/>
<feGaussianBlur stdDeviation="2"/>
<feComposite in2="hardAlpha" operator="out"/>
<feColorMatrix type="matrix" values="0 0 0 0 0 0 0 0 0 0 0 0 0 0 0 0 0 0 0.25 0"/>
<feBlend mode="normal" in2="BackgroundImageFix" result="effect1_dropShadow_137_258"/>
<feBlend mode="normal" in="SourceGraphic" in2="effect1_dropShadow_137_258" result="shape"/>
</filter>
<filter id="filter3_d_137_258" x="131.063" y="51" width="42.9365" height="54.3291" filterUnits="userSpaceOnUse" color-interpolation-filters="sRGB">
<feFlood flood-opacity="0" result="BackgroundImageFix"/>
<feColorMatrix in="SourceAlpha" type="matrix" values="0 0 0 0 0 0 0 0 0 0 0 0 0 0 0 0 0 0 127 0" result="hardAlpha"/>
<feOffset dx="-3"/>
<feGaussianBlur stdDeviation="2"/>
<feComposite in2="hardAlpha" operator="out"/>
<feColorMatrix type="matrix" values="0 0 0 0 0 0 0 0 0 0 0 0 0 0 0 0 0 0 0.25 0"/>
<feBlend mode="normal" in2="BackgroundImageFix" result="effect1_dropShadow_137_258"/>
<feBlend mode="normal" in="SourceGraphic" in2="effect1_dropShadow_137_258" result="shape"/>
</filter>
</defs>
</svg>
