<svg width="50" height="50" viewBox="0 0 50 50" fill="none" xmlns="http://www.w3.org/2000/svg">
<g clip-path="url(#clip0_142_334)">
<circle cx="25" cy="25" r="24" fill="white" stroke="white" stroke-width="2"/>
<path d="M10.0576 24.1131C10.0576 24.1131 9.41072 27.713 12.4512 30.5275C15.4917 33.342 19.655 30.7692 20.5 34.5C21.0176 38.0999 15.6859 40.9999 15.7506 41.2618C15.8152 41.5236 16.9797 42.2436 18.597 41.9163C22.802 40.6072 21.7023 35.5019 23.8371 28.9566C25.9719 22.4113 29.4007 17.6333 29.2066 17.5678C27.7833 18.2223 18.8921 28.7606 22 32.5C25.1079 36.2394 32.1823 30.462 34.1878 25.0294C37.5518 16.7169 35.2876 10.368 34.8348 10.0407C34.3819 9.71343 25.2603 11.2189 21.12 19.7278C18.403 26.0112 18.9205 30.0039 18.9205 30.0039" stroke="#212121" stroke-linecap="round"/>
</g>
<defs>
<clipPath id="clip0_142_334">
<rect width="50" height="50" fill="white"/>
</clipPath>
</defs>
</svg>
