<svg width="50" height="50" viewBox="0 0 50 50" fill="none" xmlns="http://www.w3.org/2000/svg">
<g clip-path="url(#clip0_142_334)">
<circle cx="25" cy="25" r="24" fill="white" stroke="white" stroke-width="2"/>
<path d="M10.0576 24.1129C10.0576 24.1129 9.41072 27.7128 12.4512 30.5272C15.4917 33.3417 19.655 30.7689 20.5 34.4998C21.0176 38.0997 15.6859 40.9997 15.7506 41.2615C15.8152 41.5233 16.9797 42.2433 18.597 41.916C22.802 40.607 21.7023 35.5017 23.8371 28.9564C25.9719 22.4111 29.4007 17.633 29.2066 17.5676C27.7833 18.2221 18.8921 28.7604 22 32.4998C25.1079 36.2391 32.1823 30.4618 34.1878 25.0292C37.5518 16.7167 34.4529 10.3273 34 10C33.5471 9.67272 25.2603 11.2186 21.12 19.7275C18.403 26.011 18.9205 30.0036 18.9205 30.0036" stroke="#212121" stroke-linecap="round"/>
</g>
<defs>
<clipPath id="clip0_142_334">
<rect width="50" height="50" fill="white"/>
</clipPath>
</defs>
</svg>
