<svg width="42" height="50" viewBox="0 0 42 50" fill="none" xmlns="http://www.w3.org/2000/svg">
<rect width="42" height="50" fill="white"/>
<path d="M39 25.0068C39 25.0068 27.8046 36.0646 23.886 43.4362C21.2112 48.4683 23.9141 47.9906 27.2489 43.4889C30.5837 38.9867 34.3154 34.4848 28.5988 22.7954C22.8819 11.1059 15.8948 13.2383 15.4185 13.6332C14.9421 14.0283 9.93999 24.9278 13.0366 32.0365C16.1329 39.1446 20.4206 38.5129 20.6588 37.407C20.8969 36.3014 16.3711 30.8514 11.2896 35.4325C6.20801 40.0133 5.01722 44.8316 2 43.094C2 43.094 2.74076 48.2488 12.1631 47.9906C20.8175 47.7537 30.3455 36.3456 32.8862 29C35.4271 21.6546 33.1243 12.5276 30.0277 10C30.0277 10 26.2166 10.7897 25.1846 15.8449" stroke="#212121" stroke-miterlimit="10" stroke-linecap="round" stroke-linejoin="round"/>
</svg>
